<svg data-v-fde0c5aa="" xmlns="http://www.w3.org/2000/svg" viewBox="0 0 300 300" class="font"><!----><defs data-v-fde0c5aa=""><!----></defs><rect data-v-fde0c5aa="" fill="transparent" x="0" y="0" width="300px" height="300px" class="logo-background-square"></rect><defs data-v-fde0c5aa=""><linearGradient data-v-fde0c5aa="" gradientTransform="rotate(25)" id="37b165aa-66a6-4e8f-b8cf-f2e240210edf" x1="0%" y1="0%" x2="100%" y2="0%"><stop data-v-fde0c5aa="" offset="0%" stop-color="#050922" stop-opacity="1"></stop><stop data-v-fde0c5aa="" offset="100%" stop-color="#6EE6C7" stop-opacity="1"></stop></linearGradient></defs><g data-v-fde0c5aa="" id="2afed844-b771-4161-96c2-6b5ea28ca912" fill="url(#37b165aa-66a6-4e8f-b8cf-f2e240210edf)" transform="matrix(11.38716374094651,0,0,11.38716374094651,28.84057931667951,38.348861474755665)"><path d="M9.25 15.37L7.03 11.42L6.72 10.89L6.65 10.77C8.68 10.32 9.73 8.82 9.73 7.35C9.73 6.38 9.28 5.46 8.51 4.82C7.73 4.14 6.62 3.79 5.35 3.79L1.26 3.79C1.11 3.79 0.98 3.92 0.98 4.06L0.98 5.17L1.12 5.42L1.12 5.43L2.98 8.71L0.98 8.71L0.98 15.54C0.98 15.69 1.11 15.82 1.26 15.82L2.90 15.82C3.04 15.82 3.16 15.69 3.16 15.54L3.16 10.89L4.21 10.89L4.51 11.42L6.90 15.65L6.93 15.69C6.97 15.76 7.06 15.82 7.15 15.82L9.03 15.82C9.18 15.82 9.30 15.69 9.30 15.53C9.30 15.48 9.30 15.44 9.27 15.40ZM5.19 8.19L3.95 5.98L5.35 5.98C6.86 5.98 7.53 6.69 7.53 7.35C7.53 7.91 7.03 8.53 5.89 8.68C5.77 8.69 5.63 8.71 5.49 8.71ZM19.82 15.37L17.60 11.42L17.29 10.89L17.22 10.77C19.25 10.32 20.30 8.82 20.30 7.35C20.30 6.38 19.85 5.46 19.08 4.82C18.30 4.14 17.19 3.79 15.92 3.79L11.83 3.79C11.68 3.79 11.55 3.92 11.55 4.06L11.55 5.17L11.69 5.42L11.69 5.43L13.55 8.71L11.55 8.71L11.55 15.54C11.55 15.69 11.68 15.82 11.83 15.82L13.47 15.82C13.61 15.82 13.73 15.69 13.73 15.54L13.73 10.89L14.78 10.89L15.08 11.42L17.47 15.65L17.50 15.69C17.54 15.76 17.63 15.82 17.72 15.82L19.60 15.82C19.75 15.82 19.87 15.69 19.87 15.53C19.87 15.48 19.87 15.44 19.84 15.40ZM15.76 8.19L14.52 5.98L15.92 5.98C17.43 5.98 18.10 6.69 18.10 7.35C18.10 7.91 17.60 8.53 16.46 8.68C16.34 8.69 16.20 8.71 16.06 8.71Z"></path></g><!----><!----></svg>